<svg xmlns="http://www.w3.org/2000/svg" xmlns:xlink="http://www.w3.org/1999/xlink" width="131.121" height="124.561" viewBox="0 0 131.121 124.561">
  <defs>
    <clipPath id="clip-path">
      <rect id="Rectangle_1265" data-name="Rectangle 1265" width="131.121" height="105.108" fill="none"/>
    </clipPath>
  </defs>
  <g id="Group_4052" data-name="Group 4052" transform="translate(-40.854 -142)">
    <g id="Group_4051" data-name="Group 4051" transform="translate(40.854 161.453)">
      <g id="Group_4050" data-name="Group 4050" clip-path="url(#clip-path)">
        <path id="Path_2793" data-name="Path 2793" d="M866.943,231.064c-.291,13.881-.444,37.457-.032,49.782,2.3,2.637,3.743,4.839,4.007,6.506-.361-2.273-.553-8.515-.631-16.325-.027-2.65-.041-5.479-.044-8.4-.012-11.765.151-24.948.344-33.422-.306.154-.613.307-.922.464q-1.348.681-2.722,1.393" transform="translate(-755.197 -199.728)" fill="#3880c4"/>
        <path id="Path_2794" data-name="Path 2794" d="M544.508,258.142c15.207,14.752,32.453,28.394,40.752,37.443-.365-12.449-.22-34.718.056-48.268-13.679,7.133-28.266,15.864-28.266,15.864-1.69-4.058-6.7-6.526-10.852-7.925-.565.32-1.131.638-1.69.968Z" transform="translate(-474.478 -215.509)" fill="#3880c4"/>
        <path id="Path_2795" data-name="Path 2795" d="M343.648,309.349s-3.4-1.264-8.417-3.262c1.4,3.35,2.523,7.168,4.236,12.812,5.281,3.809,7.727,5.819,10.667,9.074a65.076,65.076,0,0,1-6.942,8.841c.476,3.98.827,6.89,1.169,9.633,3.5,6.023,6.54,11.3,8.831,15.284V305.2c-.992-.584-1.994-1.149-3-1.7a10.981,10.981,0,0,0-6.542,5.849" transform="translate(-292.117 -264.467)" fill="#3880c4"/>
        <path id="Path_2796" data-name="Path 2796" d="M467.125,296.375a17.943,17.943,0,0,0-6.3.464q1.25.7,2.486,1.429l.22.13V357c2.265,3.948,3.593,6.279,3.593,6.28Z" transform="translate(-401.559 -258.174)" fill="#3880c4"/>
        <path id="Path_2797" data-name="Path 2797" d="M189.966,305.354c-4.162-4.561-7.125-6.845-12.509-11.652-5.564,1.614-8.684,2.428-13.1,2.77,1.324-3.04,1.906-7.408,3.019-15.661a133.316,133.316,0,0,1-7.405-17.634,29.358,29.358,0,0,1,9.168.363c-3.168-5.28-6.315-10.467-9.32-15.338q-1.462-.677-2.893-1.362c.31,15.153.456,41.317-.1,52.354,9.648,2.5,29.476,9.286,40.9,14.007v-.843c-2.291-3.987-5.331-9.261-8.831-15.283.329,2.645.648,5.136,1.06,8.279" transform="translate(-136.662 -215.095)" fill="#005fa2"/>
        <path id="Path_2798" data-name="Path 2798" d="M119.994,282.464l0,.073q-.036.854-.078,1.6c-.084,1.493-.183,2.65-.3,3.389a74.791,74.791,0,0,1,8.9,2.286q.87.261,1.789.544c1.728.532,3.577,1.119,5.5,1.743,1.44.469,2.921.959,4.422,1.463q.75.252,1.507.509,1.008.342,2.022.691l1.013.35q1.013.35,2.025.706t2.014.711q1,.357,1.992.713c1.648.593,3.262,1.185,4.814,1.765q1.4.522,2.72,1.029.88.338,1.721.666t1.634.645q.4.158.781.314c2.05.829,3.826,1.588,5.213,2.24.173.082.341.162.5.239.644.312,1.187.6,1.616.847,0,0-1.327-2.332-3.593-6.28v.627l-.622-.26c-11.215-4.684-32.29-11.908-41.759-14.315l-.357-.091.02-.368c.578-10.9.423-37.881.1-53.11-.924-.448-1.833-.9-2.721-1.345-.309-.157-.616-.31-.922-.464.011.466.021.949.032,1.442q.038,1.79.073,3.793.021,1.2.041,2.46t.038,2.576c.024,1.753.047,3.57.067,5.429.022,2.006.039,4.065.053,6.134.006.807.012,1.61.017,2.42.008,1.444.014,2.889.018,4.327,0,1.63.006,3.248,0,4.841,0,2.916-.017,5.743-.043,8.391-.044,4.393-.124,8.293-.25,11.266" transform="translate(-104.229 -199.884)" fill="#005fa2"/>
        <path id="Path_2799" data-name="Path 2799" d="M252.531,319.654c6.947,11.577,13.979,23.574,19.766,33.534-.341-2.743-.693-5.653-1.169-9.633a65.044,65.044,0,0,0,6.942-8.841c-2.941-3.254-5.387-5.265-10.667-9.074-1.713-5.644-2.837-9.462-4.236-12.812-1.227-.489-2.552-1.023-3.946-1.592a43.473,43.473,0,0,0-4.424,8.8c-.821-.144-1.561-.266-2.265-.377" transform="translate(-220.053 -271.208)" fill="#f6faf4"/>
        <path id="Path_2800" data-name="Path 2800" d="M190.413,372.778a29.362,29.362,0,0,0-9.168-.363,133.317,133.317,0,0,0,7.405,17.634c-1.112,8.252-1.695,12.621-3.019,15.661,4.414-.342,7.535-1.156,13.1-2.77,5.385,4.807,8.348,7.091,12.509,11.652-.412-3.143-.731-5.634-1.06-8.279-5.786-9.96-12.819-21.957-19.766-33.534" transform="translate(-157.935 -324.332)" fill="#e7e3e2"/>
        <path id="Path_2801" data-name="Path 2801" d="M192.3,252.366l-.22-.13q-1.234-.73-2.486-1.429c-.394.1-.793.225-1.193.368,1.007.555,2.009,1.12,3,1.7v57.37c-11.429-4.721-31.257-11.512-40.9-14.007.551-11.037.405-37.2.1-52.353l-.908-.436c.32,15.229.475,42.207-.1,53.11l-.02.368.357.091c9.469,2.406,30.544,9.63,41.759,14.315l.622.26v-59.23Z" transform="translate(-130.325 -212.141)" fill="#f6faf4"/>
        <path id="Path_2802" data-name="Path 2802" d="M509.8,363.932c6.854-4.012,43.169-16.5,50.183-17.462-.265-1.667-1.705-3.869-4.007-6.506.04,1.2.085,2.312.136,3.28l.02.369-.358.091c-9.469,2.406-30.544,9.631-41.759,14.315l-.622.26V300.605q-1.821-1.781-3.593-3.58Z" transform="translate(-444.234 -258.824)" fill="#005fa2"/>
        <path id="Path_2803" data-name="Path 2803" d="M544.721,331.665v55.452c11.429-4.721,31.257-11.512,40.9-14.007-.058-1.173-.109-2.518-.153-4-8.3-9.049-25.545-22.69-40.752-37.443" transform="translate(-474.664 -289.009)" fill="#005fa2"/>
        <path id="Path_2804" data-name="Path 2804" d="M537.737,252.688v59.23l.622-.26c11.215-4.684,32.289-11.909,41.759-14.315l.357-.091-.02-.368c-.051-.969-.1-2.077-.136-3.28-.412-12.325-.259-35.9.032-49.782-.3.156-.605.315-.908.473-.276,13.55-.421,35.819-.056,48.268.044,1.483.094,2.829.153,4-9.648,2.5-29.476,9.286-40.9,14.007V253.2c.56-.33,1.126-.647,1.69-.968q-.593-.2-1.158-.371c-.4.232-.809.459-1.21.7Z" transform="translate(-468.578 -212.464)" fill="#f6faf4"/>
        <path id="Path_2805" data-name="Path 2805" d="M191.737,273.321a43.469,43.469,0,0,1,4.424-8.8c-4.849-1.978-10.548-4.392-16.009-6.92,3,4.87,6.152,10.058,9.319,15.338.7.111,1.445.233,2.265.377" transform="translate(-156.982 -224.475)" fill="#3880c4"/>
        <path id="Path_2806" data-name="Path 2806" d="M513.476,299.225l.22-.13c.4-.237.807-.464,1.21-.7a40.284,40.284,0,0,0-5.023-1.2q1.769,1.8,3.593,3.58Z" transform="translate(-444.306 -258.978)" fill="#3880c4"/>
        <path id="Path_2807" data-name="Path 2807" d="M119.571,79.682l46.258-12.258h.428l53.589,11.884L169.753,97.144l-43.2-12.909Z" transform="translate(-104.193 -58.753)" fill="#052840"/>
        <path id="Path_2808" data-name="Path 2808" d="M166.059,67.424h-.23L119.57,79.682l6.986,4.552,39.5,11.805Z" transform="translate(-104.192 -58.753)" fill="#072233"/>
        <path id="Path_2809" data-name="Path 2809" d="M49.863,170.457c-.819-.356-1.657-.707-2.506-1.054-1.963-.8-4-1.58-6.127-2.318a119.47,119.47,0,0,0-25.852-5.879C7.8,160.1,0,163.407,0,163.407a36.5,36.5,0,0,1,5.548,1.863c2.958,1.2,6.455,2.84,10.161,4.7.306.154.613.307.922.464.888.449,1.8.9,2.721,1.345l.908.436q1.429.684,2.893,1.362c5.461,2.528,11.16,4.943,16.009,6.92,1.394.569,2.719,1.1,3.946,1.592,5.016,2,8.417,3.262,8.417,3.262a10.982,10.982,0,0,1,6.542-5.849c.4-.143.8-.265,1.193-.368a17.943,17.943,0,0,1,6.3-.464q-1.853-1.143-3.924-2.323a124.113,124.113,0,0,0-11.773-5.887" transform="translate(0 -140.276)" fill="#003d65"/>
        <path id="Path_2810" data-name="Path 2810" d="M540.209,29.854a23.439,23.439,0,0,0-3.531.158,7.43,7.43,0,0,1,1.138-3.739,10.128,10.128,0,0,1,1.933-2.339c-5.572-.055-16.693-2.954-27.016-6.046q-.967-.29-1.923-.58l-2.932-.9c-3.216-1-6.239-1.979-8.856-2.842-5.411-1.783-9.08-3.077-9.08-3.077-3.452,2.048-6.537,6.165-7.224,7.119-.093.129-.145.2-.145.2.153.065.307.126.461.191q1.648.7,3.308,1.342,3.09,1.2,6.185,2.241l2.778.9c3.232,1.009,6.424,1.887,9.517,2.649l5.906,1.348a180.175,180.175,0,0,0,25.643,3.574l-.12.015h-.006a119.46,119.46,0,0,0-24.889,5.554c-.319.108-.636.212-.957.324q-.945.328-1.868.666A123.826,123.826,0,0,0,486.07,47.527a40.286,40.286,0,0,1,5.023,1.2q.564.171,1.158.371c4.153,1.4,9.162,3.867,10.852,7.925,0,0,14.586-8.731,28.266-15.864.3-.158.606-.317.908-.473q1.372-.711,2.722-1.393c.309-.157.615-.31.922-.464a123.881,123.881,0,0,1,12.366-5.547,27.59,27.59,0,0,1,3.343-1.014,35.411,35.411,0,0,0-11.421-2.414" transform="translate(-420.51 -9.137)" fill="#003d65"/>
        <path id="Path_2811" data-name="Path 2811" d="M132.759,3.175c-.425-.44-.863-.87-1.314-1.274L129.919,0l-4.4,1.914-5.237,2.305-1.96.836c-9.976,4.215-24.277,9.67-31.635,9.742a10.816,10.816,0,0,1,2.87,2.809l.053.075a7.853,7.853,0,0,1,1.306,3.248c10.784.4,23.453-3.231,32.8-6.642l13.454-5.616a43.842,43.842,0,0,0-4.417-5.5" transform="translate(-75.54)" fill="#003d65"/>
      </g>
    </g>
    <text id="_" data-name="?" transform="translate(92 193)" fill="#fff" font-size="55" font-family="AvenirLTStd-Book, Avenir LT Std"><tspan x="0" y="0">?</tspan></text>
    <text id="_2" data-name="?" transform="translate(115.855 175.78) rotate(20)" fill="#fff" font-size="27" font-family="AvenirLTStd-Book, Avenir LT Std"><tspan x="0" y="0">?</tspan></text>
    <text id="_3" data-name="?" transform="matrix(0.94, -0.342, 0.342, 0.94, 86.855, 185.112)" fill="#fff" font-size="16" font-family="AvenirLTStd-Book, Avenir LT Std"><tspan x="0" y="0">?</tspan></text>
  </g>
</svg>
